<?xml version="1.0" encoding="utf-8"?>
<svg version="1.1" xmlns="http://www.w3.org/2000/svg" xmlns:xlink="http://www.w3.org/1999/xlink" x="0px"
	 y="0px" width="283.5px" height="85px" viewBox="0 0 283.5 85" style="enable-background:new 0 0 283.5 85;" xml:space="preserve">
<style type="text/css">
	path{ fill: #333; }
	.st0{ fill: none; }
</style>
<g class="base">
	<g>
		<path d="M11.6,22.8v14.6h14.1V22.8h8.5v37.9h-8.5V44.8H11.6v15.9H3V22.8H11.6z"/>
		<path d="M150.8,59.6c-1.6,0.8-5.1,1.6-9.7,1.6c-13.1,0-19.9-8.2-19.9-19c0-12.9,9.2-20.1,20.7-20.1c4.4,0,7.8,0.9,9.3,1.7l-1.7,6.8
			c-1.7-0.7-4.2-1.4-7.2-1.4c-6.8,0-12.1,4.1-12.1,12.5c0,7.6,4.5,12.4,12.1,12.4c2.6,0,5.5-0.6,7.1-1.2L150.8,59.6z"/>
		<path d="M188.9,41.3c0,12.4-7.5,20-18.6,20c-11.2,0-17.8-8.5-17.8-19.3c0-11.4,7.3-19.9,18.4-19.9C182.6,22.1,188.9,30.9,188.9,41.3
			z M161.5,41.8c0,7.4,3.5,12.7,9.2,12.7c5.8,0,9.1-5.5,9.1-12.9c0-6.8-3.3-12.7-9.2-12.7C164.9,28.9,161.5,34.5,161.5,41.8z"/>
		<path d="M193.4,51.9c2.3,1.2,5.8,2.4,9.5,2.4c3.9,0,6-1.6,6-4.1c0-2.4-1.8-3.7-6.4-5.3c-6.3-2.2-10.4-5.7-10.4-11.2
			c0-6.5,5.4-11.4,14.3-11.4c4.3,0,7.4,0.9,9.7,1.9l-1.9,6.9c-1.5-0.7-4.2-1.8-7.9-1.8s-5.5,1.7-5.5,3.7c0,2.4,2.1,3.5,7,5.3
			c6.7,2.5,9.8,6,9.8,11.3c0,6.4-4.9,11.8-15.3,11.8c-4.3,0-8.6-1.1-10.7-2.3L193.4,51.9z"/>
		<path d="M229.8,30h-10.2v-7.2h29.1V30h-10.3v30.7h-8.6V30z"/>
		<path d="M257.6,50.9l-2.7,9.7H246l11.6-37.9h11.2l11.8,37.9h-9.2l-2.9-9.7H257.6z M267.2,44.5l-2.4-8c-0.7-2.3-1.3-5.1-1.9-7.3h-0.1
			c-0.6,2.2-1.1,5.1-1.7,7.3l-2.3,8H267.2z"/>
	</g>

	<g >
		<path class="st0" d="M69.2,46.1c0,4.2,2,7.1,5.8,7.1c4.8,0,9.5-6.2,10.5-12.3l1.9-10.6c-1-0.3-2.4-0.6-4.1-0.6
			C75.4,29.7,69.2,37.3,69.2,46.1z"/>
		<path d="M109.4,42.6c-2.7,8.2-9.6,11.6-13.5,11.5c-3.1,0-4-3.2-2.8-10.1l3.3-18.9c-2.7-1.3-7.2-2.4-11.8-2.4
			C70,22.8,60.3,34.3,60.3,47c0,8.2,5.1,13.2,11.4,13.2c5.8,0,10.4-2.8,13.8-8.5h0.3c0.2,5.9,3.8,8.5,8.4,8.5
			c8.9,0,18.9-3.6,22.7-17.5h-7.5V42.6z M85.5,40.9c-1,6.1-5.7,12.3-10.5,12.3c-3.8,0-5.8-2.9-5.8-7.1c0-8.8,6.2-16.4,14-16.4
			c1.8,0,3.1,0.3,4.1,0.6L85.5,40.9z"/>
	</g>
	<g class="base">
		<path d="M116.8,63.5L116.8,63.5L116.8,63.5L116.8,63.5z"/>
		<path d="M80.7,1c-23,0-41.6,18.7-41.6,41.6s18.7,41.6,41.6,41.6c11.2,0,21.8-4.6,29.6-12.4V59.7l0,0c-6.1,10.5-17.4,17.1-29.6,17.1
			c-18.8,0-34.1-15.3-34.1-34.1S61.9,8.5,80.7,8.5s34.1,15.3,28.7,34.1h7.5C122.4,19.7,103.7,1,80.7,1z"/>
	</g>
</g>
</svg>
