<?xml version="1.0" encoding="utf-8"?>
<!-- Generator: Adobe Illustrator 21.0.0, SVG Export Plug-In . SVG Version: 6.00 Build 0)  -->
<svg version="1.1" id="レイヤー_1" xmlns="http://www.w3.org/2000/svg" xmlns:xlink="http://www.w3.org/1999/xlink" x="0px"
	 y="0px" width="200px" height="200px" viewBox="0 0 200 200" enable-background="new 0 0 200 200" xml:space="preserve">
<g>
	<rect fill="none" width="200" height="200"/>
</g>
<g>
	
		<rect x="17.6" y="70.3" transform="matrix(-0.9968 -7.994303e-02 7.994303e-02 -0.9968 87.3163 150.225)" fill="#808080" stroke="#754C24" stroke-width="2" stroke-miterlimit="10" width="58" height="6.1"/>
	
		<rect x="124.6" y="70.3" transform="matrix(0.9968 -7.994303e-02 7.994303e-02 0.9968 -5.3735 12.5121)" fill="#808080" stroke="#754C24" stroke-width="2" stroke-miterlimit="10" width="58" height="6.1"/>
	<path fill="#CCCCCC" stroke="#754C24" stroke-width="2" stroke-miterlimit="10" d="M148.1,139c-5,0-91.4,0-95.5,0
		s-7.2-68.7-7.2-68.7h110C155.3,70.3,153.1,139,148.1,139z"/>
</g>
<g>
	<path fill="#49AEFF" d="M60.8,144c0,0,5,7.4,5,12.5c0,5.1-2.3,6-5,6"/>
	<path fill="#49AEFF" d="M60.8,162.5c-2.8,0-5-0.9-5-6c0-5.1,5-12.5,5-12.5"/>
	<path fill="#B5E8FF" d="M60.8,162c-1.4,0-2.6-0.5-2.6-3.1s2.6-6.5,2.6-6.5s2.6,3.8,2.6,6.5S62.2,162,60.8,162"/>
	<path fill="#49AEFF" d="M73.8,144c0,0,5,7.4,5,12.5c0,5.1-2.3,6-5,6"/>
	<path fill="#49AEFF" d="M73.8,162.5c-2.8,0-5-0.9-5-6c0-5.1,5-12.5,5-12.5"/>
	<path fill="#B5E8FF" d="M73.8,162c-1.4,0-2.6-0.5-2.6-3.1s2.6-6.5,2.6-6.5s2.6,3.8,2.6,6.5S75.2,162,73.8,162"/>
	<path fill="#49AEFF" d="M86.8,144c0,0,5,7.4,5,12.5c0,5.1-2.3,6-5,6"/>
	<path fill="#49AEFF" d="M86.8,162.5c-2.8,0-5-0.9-5-6c0-5.1,5-12.5,5-12.5"/>
	<path fill="#B5E8FF" d="M86.8,162c-1.4,0-2.6-0.5-2.6-3.1s2.6-6.5,2.6-6.5s2.6,3.8,2.6,6.5S88.2,162,86.8,162"/>
	<path fill="#49AEFF" d="M99.8,144c0,0,5,7.4,5,12.5c0,5.1-2.3,6-5,6"/>
	<path fill="#49AEFF" d="M99.8,162.5c-2.8,0-5-0.9-5-6c0-5.1,5-12.5,5-12.5"/>
	<path fill="#B5E8FF" d="M99.8,162c-1.4,0-2.6-0.5-2.6-3.1s2.6-6.5,2.6-6.5s2.6,3.8,2.6,6.5S101.2,162,99.8,162"/>
	<path fill="#49AEFF" d="M112.8,144c0,0,5,7.4,5,12.5c0,5.1-2.3,6-5,6"/>
	<path fill="#49AEFF" d="M112.8,162.5c-2.8,0-5-0.9-5-6c0-5.1,5-12.5,5-12.5"/>
	<path fill="#B5E8FF" d="M112.8,162c-1.4,0-2.6-0.5-2.6-3.1s2.6-6.5,2.6-6.5s2.6,3.8,2.6,6.5S114.2,162,112.8,162"/>
	<path fill="#49AEFF" d="M125.8,144c0,0,5,7.4,5,12.5c0,5.1-2.3,6-5,6"/>
	<path fill="#49AEFF" d="M125.8,162.5c-2.8,0-5-0.9-5-6c0-5.1,5-12.5,5-12.5"/>
	<path fill="#B5E8FF" d="M125.8,162c-1.4,0-2.6-0.5-2.6-3.1s2.6-6.5,2.6-6.5s2.6,3.8,2.6,6.5S127.2,162,125.8,162"/>
	<path fill="#49AEFF" d="M138.8,144c0,0,5,7.4,5,12.5c0,5.1-2.3,6-5,6"/>
	<path fill="#49AEFF" d="M138.8,162.5c-2.8,0-5-0.9-5-6c0-5.1,5-12.5,5-12.5"/>
	<path fill="#B5E8FF" d="M138.8,162c-1.4,0-2.6-0.5-2.6-3.1s2.6-6.5,2.6-6.5s2.6,3.8,2.6,6.5S140.2,162,138.8,162"/>
</g>
</svg>
