<?xml version="1.0" encoding="utf-8"?>
<!-- Generator: Adobe Illustrator 21.0.0, SVG Export Plug-In . SVG Version: 6.00 Build 0)  -->
<svg version="1.1" id="レイヤー_1" xmlns="http://www.w3.org/2000/svg" xmlns:xlink="http://www.w3.org/1999/xlink" x="0px"
	 y="0px" width="200px" height="200px" viewBox="0 0 200 200" enable-background="new 0 0 200 200" xml:space="preserve">
<g>
	<rect fill="none" width="200" height="200"/>
</g>
<g>
	
		<rect x="130.9" y="116.3" transform="matrix(0.9968 -7.994303e-02 7.994303e-02 0.9968 -9.2989 13.3226)" fill="#C7B299" stroke="#754C24" stroke-width="2" stroke-miterlimit="10" width="61.7" height="13"/>
	<path fill="#CCCCCC" stroke="#754C24" stroke-width="2" stroke-miterlimit="10" d="M129.7,139c-5.3,0-97.1,0-101.5,0
		s-7.7-21.1-7.7-21.1h116.9C137.4,117.9,135,139,129.7,139z"/>
</g>
<g>
	<path fill="#49AEFF" d="M40.8,144c0,0,5,7.4,5,12.5c0,5.1-2.3,6-5,6"/>
	<path fill="#49AEFF" d="M40.8,162.5c-2.8,0-5-0.9-5-6c0-5.1,5-12.5,5-12.5"/>
	<path fill="#B5E8FF" d="M40.8,162c-1.4,0-2.6-0.5-2.6-3.1s2.6-6.5,2.6-6.5s2.6,3.8,2.6,6.5S42.2,162,40.8,162"/>
	<path fill="#49AEFF" d="M53.8,144c0,0,5,7.4,5,12.5c0,5.1-2.3,6-5,6"/>
	<path fill="#49AEFF" d="M53.8,162.5c-2.8,0-5-0.9-5-6c0-5.1,5-12.5,5-12.5"/>
	<path fill="#B5E8FF" d="M53.8,162c-1.4,0-2.6-0.5-2.6-3.1s2.6-6.5,2.6-6.5s2.6,3.8,2.6,6.5S55.2,162,53.8,162"/>
	<path fill="#49AEFF" d="M66.8,144c0,0,5,7.4,5,12.5c0,5.1-2.3,6-5,6"/>
	<path fill="#49AEFF" d="M66.8,162.5c-2.8,0-5-0.9-5-6c0-5.1,5-12.5,5-12.5"/>
	<path fill="#B5E8FF" d="M66.8,162c-1.4,0-2.6-0.5-2.6-3.1s2.6-6.5,2.6-6.5s2.6,3.8,2.6,6.5S68.2,162,66.8,162"/>
	<path fill="#49AEFF" d="M79.8,144c0,0,5,7.4,5,12.5c0,5.1-2.3,6-5,6"/>
	<path fill="#49AEFF" d="M79.8,162.5c-2.8,0-5-0.9-5-6c0-5.1,5-12.5,5-12.5"/>
	<path fill="#B5E8FF" d="M79.8,162c-1.4,0-2.6-0.5-2.6-3.1s2.6-6.5,2.6-6.5s2.6,3.8,2.6,6.5S81.2,162,79.8,162"/>
	<path fill="#49AEFF" d="M92.8,144c0,0,5,7.4,5,12.5c0,5.1-2.3,6-5,6"/>
	<path fill="#49AEFF" d="M92.8,162.5c-2.8,0-5-0.9-5-6c0-5.1,5-12.5,5-12.5"/>
	<path fill="#B5E8FF" d="M92.8,162c-1.4,0-2.6-0.5-2.6-3.1s2.6-6.5,2.6-6.5s2.6,3.8,2.6,6.5S94.2,162,92.8,162"/>
	<path fill="#49AEFF" d="M105.8,144c0,0,5,7.4,5,12.5c0,5.1-2.3,6-5,6"/>
	<path fill="#49AEFF" d="M105.8,162.5c-2.8,0-5-0.9-5-6c0-5.1,5-12.5,5-12.5"/>
	<path fill="#B5E8FF" d="M105.8,162c-1.4,0-2.6-0.5-2.6-3.1s2.6-6.5,2.6-6.5s2.6,3.8,2.6,6.5S107.2,162,105.8,162"/>
	<path fill="#49AEFF" d="M118.8,144c0,0,5,7.4,5,12.5c0,5.1-2.3,6-5,6"/>
	<path fill="#49AEFF" d="M118.8,162.5c-2.8,0-5-0.9-5-6c0-5.1,5-12.5,5-12.5"/>
	<path fill="#B5E8FF" d="M118.8,162c-1.4,0-2.6-0.5-2.6-3.1s2.6-6.5,2.6-6.5s2.6,3.8,2.6,6.5S120.2,162,118.8,162"/>
</g>
</svg>
