<?xml version="1.0" encoding="utf-8"?>
<!-- Generator: Adobe Illustrator 21.0.0, SVG Export Plug-In . SVG Version: 6.00 Build 0)  -->
<svg version="1.1" id="レイヤー_1" xmlns="http://www.w3.org/2000/svg" xmlns:xlink="http://www.w3.org/1999/xlink" x="0px"
	 y="0px" width="200px" height="200px" viewBox="0 0 200 200" enable-background="new 0 0 200 200" xml:space="preserve">
<g>
	<rect fill="none" width="200" height="200"/>
</g>
<g>
	<path fill="#F2F2F2" stroke="#754C24" stroke-width="2" stroke-miterlimit="10" d="M41.8,132.1l-4.6,2.6
		c7.2,12.5,33.3,15.6,45.8,8.4c12.5-7.2,48.9-28.2,48.9-28.2l-3.3-5.7c-9.3,5.4-35.3,20.4-45.5,26.3
		C72.5,141.7,52.1,140.3,41.8,132.1z"/>
	<path fill="#CCCCCC" stroke="#754C24" stroke-width="2" stroke-miterlimit="10" d="M41.8,132.1c10.3,8.2,30.7,9.5,41.3,3.4
		c10.2-5.9,36.1-20.9,45.5-26.3L122,97.9l3.4-2l35.2-20.3l-3.3-5.7l-2-3.4L41.8,132.1z"/>
	
		<rect x="116.4" y="77" transform="matrix(0.866 -0.5 0.5 0.866 -22.5235 80.3872)" fill="#808080" stroke="#754C24" stroke-width="2" stroke-miterlimit="10" width="44.6" height="10.5"/>
</g>
</svg>
